<svg width="269" height="50" viewBox="0 0 269 50" fill="none" xmlns="http://www.w3.org/2000/svg">
<g clip-path="url(#clip0_0_848)">
<path d="M47.31 24.94V11.37H50.84V24.94C50.84 29.15 49.68 32.39 47.37 34.65C45.05 36.91 41.93 38.04 38 38.04C34.07 38.04 30.95 36.91 28.63 34.65C26.31 32.39 25.16 29.15 25.16 24.94V11.37H28.69V24.94C28.69 28.06 29.52 30.48 31.19 32.2C32.86 33.92 35.13 34.78 38 34.78C40.87 34.78 43.15 33.92 44.81 32.2C46.48 30.48 47.31 28.06 47.31 24.94ZM79.56 37.36H76.03V23.79C76.03 20.63 75.2 18.2 73.53 16.5C71.86 14.8 69.59 13.95 66.72 13.95C63.85 13.95 61.57 14.8 59.91 16.5C58.24 18.2 57.41 20.63 57.41 23.79V37.36H53.88V23.79C53.88 19.58 55.04 16.34 57.35 14.08C59.67 11.82 62.79 10.69 66.72 10.69C70.65 10.69 73.77 11.82 76.09 14.08C78.41 16.34 79.56 19.58 79.56 23.79V37.36ZM105.6 34.2C103 36.76 99.65 38.04 95.55 38.04C91.45 38.04 88.09 36.75 85.47 34.17C82.86 31.59 81.55 28.32 81.55 24.36C81.55 20.4 82.85 16.95 85.44 14.44C88.04 11.93 91.23 10.68 95.02 10.68C97.47 10.68 99.66 11.22 101.57 12.31C103.48 13.4 104.91 14.87 105.86 16.73H105.97V0H109.5V24.2C109.5 28.3 108.2 31.64 105.61 34.2H105.6ZM88.03 31.83C89.96 33.79 92.47 34.78 95.55 34.78C98.63 34.78 101.14 33.8 103.07 31.83C105 29.87 105.96 27.38 105.96 24.36C105.96 21.34 104.99 18.85 103.07 16.89C101.14 14.93 98.63 13.94 95.55 13.94C92.47 13.94 89.95 14.92 88.03 16.89C86.1 18.85 85.14 21.34 85.14 24.36C85.14 27.38 86.1 29.87 88.03 31.83ZM3.78 37.39H0V13.59C0 7.8 4.69 3.1 10.49 3.1H24.75V6.56H11.28C7.13 6.56 3.77 9.92 3.77 14.07V18.2H21.7V21.66H3.78V37.39Z" fill="url(#paint0_linear_0_848)"/>
<path d="M134.23 37.3599H130.7V22.1499C130.7 19.5199 130.02 17.4899 128.65 16.0699C127.28 14.6499 125.51 13.9399 123.34 13.9399C121.17 13.9399 119.41 14.6399 118.08 16.0399C116.75 17.4399 116.08 19.4799 116.08 22.1399V37.3499H112.55V22.1399C112.55 18.4199 113.52 15.5799 115.47 13.6199C117.42 11.6599 119.95 10.6699 123.07 10.6699C125.21 10.6699 127.09 11.1599 128.7 12.1399C130.31 13.1199 131.54 14.5399 132.38 16.3999H132.49C133.3 14.5399 134.52 13.1199 136.15 12.1399C137.78 11.1599 139.67 10.6699 141.81 10.6699C144.93 10.6699 147.47 11.6499 149.41 13.6199C151.36 15.5799 152.33 18.4299 152.33 22.1399V37.3499H148.8V22.1399C148.8 19.4699 148.13 17.4399 146.8 16.0399C145.47 14.6399 143.71 13.9399 141.54 13.9399C139.37 13.9399 137.6 14.6499 136.25 16.0699C134.9 17.4899 134.22 19.5199 134.22 22.1499V37.3599H134.23Z" fill="#06252D"/>
<path d="M177.53 24.7801V11.3601H181.06V36.4001C181.06 40.7101 179.87 43.9101 177.48 46.0001C175.09 48.0901 171.96 49.1301 168.06 49.1301C165.01 49.1301 162.38 48.4201 160.17 47.0001C157.96 45.5801 156.45 43.5001 155.64 40.7601H159.17C160.54 44.2701 163.5 46.0201 168.06 46.0201C171.01 46.0201 173.32 45.2501 175.01 43.7001C176.69 42.1601 177.54 39.7501 177.54 36.4901V32.3301H177.43C175.54 36.0101 172.29 37.8501 167.7 37.8501C164.05 37.8501 161.09 36.7401 158.81 34.5101C156.53 32.2801 155.39 29.0301 155.39 24.7501V11.3301H158.92V24.7501C158.92 27.9101 159.75 30.3401 161.42 32.0401C163.09 33.7401 165.36 34.5901 168.23 34.5901C171.1 34.5901 173.33 33.7301 175.02 32.0101C176.7 30.2901 177.55 27.8701 177.55 24.7501L177.53 24.7801Z" fill="#06252D"/>
<path d="M211.26 20.3598H207.68C206.98 18.3998 205.76 16.8298 204.02 15.6798C202.28 14.5198 200.24 13.9398 197.89 13.9398C194.8 13.9398 192.29 14.9198 190.37 16.8898C188.44 18.8498 187.48 21.3398 187.48 24.3598C187.48 27.3798 188.44 29.8698 190.37 31.8298C192.3 33.7898 194.81 34.7798 197.89 34.7798C200.24 34.7798 202.28 34.1998 204.02 33.0398C205.76 31.8798 206.97 30.3198 207.68 28.3598H211.26C210.49 31.2698 208.9 33.6098 206.5 35.3798C204.1 37.1498 201.23 38.0398 197.9 38.0398C193.8 38.0398 190.44 36.7498 187.82 34.1698C185.21 31.5898 183.9 28.3198 183.9 24.3598C183.9 20.3998 185.21 17.1298 187.82 14.5498C190.43 11.9698 193.79 10.6798 197.9 10.6798C201.23 10.6798 204.1 11.5698 206.5 13.3398C208.9 15.1098 210.49 17.4498 211.26 20.3598ZM268.86 22.1498H265.39V21.7798C265.39 19.1498 264.73 17.1898 263.42 15.8898C262.1 14.5898 260.29 13.9398 257.97 13.9398C255.65 13.9398 253.84 14.5898 252.52 15.8898C251.2 17.1898 250.55 19.1498 250.55 21.7798V37.3498H247.02V21.7798C247.02 18.1698 248.01 15.4098 249.99 13.5198C251.97 11.6298 254.63 10.6798 257.96 10.6798C261.29 10.6798 263.94 11.6298 265.9 13.5198C267.86 15.4098 268.85 18.1898 268.85 21.8298V22.1498H268.86ZM241.5 34.0498H240.12V36.1598C240.12 37.1998 240.96 38.0398 242 38.0398C243.04 38.0398 243.91 37.1798 243.91 36.1298V33.3898C243.2 33.7998 242.38 34.0498 241.5 34.0498ZM216.49 24.4698H217.87C218 21.3298 218.95 18.8298 220.72 16.9798C222.63 14.9798 225.38 13.9798 228.95 13.9798C232.52 13.9798 235.32 14.9698 237.24 16.9498C239.01 18.7898 239.96 21.2898 240.09 24.4698H241.49C242.37 24.4698 243.19 24.7098 243.89 25.1198C243.87 20.5798 242.58 17.0198 240.02 14.4298C237.44 11.8198 233.77 10.5098 229 10.5098C224.23 10.5098 220.61 11.8198 218.03 14.4298C215.48 17.0098 214.2 20.5598 214.17 25.0698C214.86 24.6898 215.64 24.4698 216.48 24.4698H216.49ZM216.49 34.0498C215.65 34.0498 214.86 33.8298 214.17 33.4498V36.2398C214.17 37.2298 214.98 38.0398 215.97 38.0398C216.96 38.0398 217.85 37.1998 217.85 36.1598V34.0498H216.48H216.49ZM241.5 25.5398H216.49C214.43 25.5398 212.77 27.2098 212.77 29.2598C212.77 31.3098 214.45 32.9798 216.49 32.9798H241.5C243.56 32.9798 245.22 31.3098 245.22 29.2598C245.22 27.2098 243.54 25.5398 241.5 25.5398ZM236.17 30.0498C236.17 30.8098 235.56 31.4198 234.8 31.4198H223.44C222.68 31.4198 222.07 30.8098 222.07 30.0498V28.2598C222.07 27.4998 222.68 26.8898 223.44 26.8898H234.8C235.56 26.8898 236.17 27.4998 236.17 28.2598V30.0498Z" fill="#06252D"/>
<path d="M216.63 31.6601C218.027 31.6601 219.16 30.5274 219.16 29.1301C219.16 27.7328 218.027 26.6001 216.63 26.6001C215.233 26.6001 214.1 27.7328 214.1 29.1301C214.1 30.5274 215.233 31.6601 216.63 31.6601Z" fill="url(#paint1_linear_0_848)"/>
<path d="M241.37 31.6601C242.767 31.6601 243.9 30.5274 243.9 29.1301C243.9 27.7328 242.767 26.6001 241.37 26.6001C239.973 26.6001 238.84 27.7328 238.84 29.1301C238.84 30.5274 239.973 31.6601 241.37 31.6601Z" fill="url(#paint2_linear_0_848)"/>
</g>
<defs>
<linearGradient id="paint0_linear_0_848" x1="55.05" y1="6.38" x2="54.24" y2="40.86" gradientUnits="userSpaceOnUse">
<stop offset="0.43" stop-color="#89ADDB"/>
<stop offset="1" stop-color="#5D87C5"/>
</linearGradient>
<linearGradient id="paint1_linear_0_848" x1="216.46" y1="25.3501" x2="216.9" y2="35.0401" gradientUnits="userSpaceOnUse">
<stop offset="0.26" stop-color="#47C8F1"/>
<stop offset="0.76" stop-color="#7360AA"/>
</linearGradient>
<linearGradient id="paint2_linear_0_848" x1="241.15" y1="24.2201" x2="241.59" y2="33.9101" gradientUnits="userSpaceOnUse">
<stop offset="0.26" stop-color="#47C8F1"/>
<stop offset="0.76" stop-color="#7360AA"/>
</linearGradient>
<clipPath id="clip0_0_848">
<rect width="268.86" height="49.14" fill="white"/>
</clipPath>
</defs>
</svg>
